<?xml version="1.0" standalone="no"?>
<!DOCTYPE svg PUBLIC "-//W3C//DTD SVG 20010904//EN"
 "http://www.w3.org/TR/2001/REC-SVG-20010904/DTD/svg10.dtd">
<svg version="1.0" xmlns="http://www.w3.org/2000/svg"
 width="156.000000pt" height="124.000000pt" viewBox="0 0 156.000000 124.000000"
 preserveAspectRatio="xMidYMid meet">

<g transform="translate(0.000000,124.000000) scale(0.100000,-0.100000)"
fill="#0278AA" stroke="none">
<path d="M287 1049 c-43 -25 -47 -54 -47 -331 0 -161 4 -278 11 -303 15 -53
91 -129 144 -144 22 -6 99 -11 171 -11 118 0 133 -2 149 -20 18 -20 17 -20
-147 -20 -147 0 -167 -2 -181 -18 -10 -10 -17 -24 -17 -30 0 -9 118 -12 470
-12 496 0 499 0 452 43 -16 14 -44 17 -187 17 -167 0 -168 0 -150 20 16 18 31
20 144 20 69 0 141 4 160 10 58 16 109 59 136 113 25 51 25 51 25 335 l0 284
-29 29 -29 29 -529 0 c-340 0 -534 -4 -546 -11z m1041 -67 c9 -7 12 -70 10
-283 l-3 -274 -499 -3 c-393 -2 -501 0 -508 10 -13 22 -10 532 4 546 14 14
974 17 996 4z m-458 -642 c17 -33 -4 -62 -43 -58 -25 2 -33 8 -35 26 -7 48 56
73 78 32z"/>
<path d="M347 963 c-9 -8 -9 -496 -1 -517 5 -14 58 -16 490 -16 l484 0 0 270
0 270 -483 0 c-266 0 -487 -3 -490 -7z"/>
</g>
</svg>
